<svg xmlns="http://www.w3.org/2000/svg" version="1" width="177.636" height="141.436"><path d="M26.692 70.222c6.1 5.988 13.474 8.998 22.098 8.998 8.522 0 15.833-3.01 21.934-8.998 6.102-6.008 9.157-13.278 9.157-21.838 0-8.55-3.054-15.82-9.156-21.818-6.1-6-13.412-8.998-21.934-8.998-8.624 0-15.997 3-22.098 8.998-6.1 5.998-9.147 13.268-9.147 21.818 0 8.56 3.046 15.83 9.147 21.838m-12.387-56.02C23.83 4.76 35.325.043 48.79.043c13.362 0 24.806 4.716 34.322 14.16 9.526 9.446 14.284 20.853 14.284 34.212 0 13.36-4.758 24.767-14.284 34.212-9.516 9.445-20.96 14.172-34.322 14.172-13.464 0-24.96-4.727-34.485-14.172C4.79 73.18.03 61.774.03 48.414c0-13.36 4.76-24.766 14.275-34.21" fill="#30922e"/><path d="M177.636 48.486c0-13.34-4.768-24.757-14.294-34.252C153.815 4.748 142.27 0 128.692 0c-13.474 0-24.98 4.748-34.506 14.244-9.526 9.496-14.284 20.923-14.284 34.282 0 13.36 4.758 24.767 14.284 34.212 9.516 9.445 21.012 14.162 34.475 14.162 8.954 0 17.013-2.064 24.212-6.192l-7.978-15.93c-5.137 3.03-10.53 4.543-16.19 4.543-8.523 0-15.834-3.018-21.925-9.067-6.103-6.04-9.148-13.288-9.148-21.727 0-8.54 3.045-15.84 9.147-21.88 6.09-6.048 13.39-9.068 21.902-9.068 8.614 0 15.997 3.02 22.14 9.06 6.152 6.048 9.228 13.338 9.228 21.878v13.136l.04-.02v32.492l17.536-.01.01-30.053V48.487" fill="#fee111"/><path d="M48.83 96.798h-.02c13.354-.005 24.79-4.732 34.302-14.172 2.054-2.037 3.886-4.165 5.497-6.384l.016.025c-1.605 2.21-3.428 4.33-5.473 6.36-9.527 9.444-20.97 14.17-34.322 14.17m-.04-17.577c-8.624 0-15.997-3.01-22.098-8.998-6.1-6.008-9.147-13.278-9.147-21.838 0-8.55 3.046-15.82 9.147-21.818 6.1-6 13.474-8.998 22.098-8.998h.02c-8.624.005-15.98 3.004-22.077 8.998-6.1 5.998-9.157 13.268-9.157 21.828 0 8.55 3.056 15.83 9.157 21.828 6.097 5.993 13.453 8.992 22.078 8.998h-.02m39.885-58.544c-1.627-2.25-3.48-4.41-5.563-6.473C73.6 4.763 62.164.045 48.812.04h.02c13.35 0 24.794 4.718 34.32 14.163 2.073 2.058 3.92 4.208 5.54 6.45-.007.008-.01.016-.017.023" fill="#8dc47d"/><path d="M48.81 96.798c-13.464-.005-24.953-4.732-34.464-14.172C4.82 73.18.062 61.774.062 48.414c0-13.36 4.758-24.756 14.284-34.21 9.51-9.44 21-14.16 34.465-14.163C62.165.046 73.6 4.764 83.113 14.204c2.082 2.064 3.936 4.222 5.563 6.473-5.716 7.913-8.637 16.96-8.767 27.137-.136-8.31-3.18-15.385-9.143-21.247-6.11-6-13.423-8.998-21.934-8.998h-.04c-8.624 0-15.997 3-22.098 8.998-6.1 5.998-9.147 13.268-9.147 21.818 0 8.56 3.046 15.83 9.147 21.838 6.1 5.988 13.474 8.998 22.098 8.998h.04c8.512 0 15.824-3 21.935-8.998 5.938-5.837 8.98-12.886 9.14-21.14.102 10.203 3.002 19.258 8.704 27.16-1.612 2.22-3.444 4.347-5.498 6.384-9.512 9.44-20.948 14.167-34.3 14.172" fill="#30922e"/><path d="M88.626 76.267c-.006-.008-.01-.017-.017-.025-5.703-7.902-8.603-16.957-8.705-27.16.005-.228.007-.458.007-.688 0-.194 0-.387-.004-.58.13-10.18 3.05-19.225 8.767-27.138l.016-.023c5.824 8.06 8.737 17.31 8.737 27.76 0 10.49-2.934 19.776-8.8 27.854" fill="#8eb820"/><path d="M4.952 123.91c0 2.282 1.534 4.736 4.044 4.736 2.512 0 4.043-2.454 4.043-4.736 0-2.35-1.532-4.772-4.044-4.772-2.51 0-4.044 2.42-4.044 4.772m13.04 0c0 5.255-3.626 9.023-8.996 9.023-5.37 0-8.996-3.768-8.996-9.023 0-5.29 3.66-9.058 8.996-9.058 5.335 0 8.996 3.768 8.996 9.058M32.774 123.875c0-2.28-1.535-4.737-4.045-4.737s-4.044 2.456-4.044 4.737c0 2.282 1.533 4.77 4.043 4.77 2.51 0 4.044-2.488 4.044-4.77m-7.6-6.914c1.116-1.312 2.93-2.108 4.74-2.108 4.848 0 7.812 4.494 7.812 8.953 0 4.634-2.86 9.128-7.914 9.128-1.746 0-3.593-.76-4.568-2.143h-.07v10.646h-4.882v-26.03h4.882v1.555zM50.59 121.662c-.243-1.73-1.36-3.422-3.242-3.422-1.952 0-3.033 1.66-3.28 3.422h6.522zm-6.658 3.007c0 2.143.835 4.562 3.38 4.562 1.604 0 2.618-.967 3.278-2.316l4.498.728c-1.185 3.388-4.184 5.29-7.776 5.29-5.3 0-8.54-3.733-8.54-8.885 0-5.154 2.754-9.198 8.298-9.198 5.613 0 8.12 4.114 8.12 9.23v.587H43.933zM62.34 116.96h.07c1.012-1.52 2.72-2.108 4.463-2.108 4.602 0 5.928 3.216 5.928 7.154v10.372h-4.88v-8.986c0-2.04.103-4.667-2.65-4.667-2.896 0-2.93 3.216-2.93 5.253v8.4h-4.883v-16.97h4.883v1.553z" fill="#30922e"/><path d="M97.004 123.802c0-2.28-1.57-4.735-4.08-4.735s-4.043 2.456-4.043 4.735c0 2.283 1.535 4.773 4.045 4.773s4.08-2.49 4.08-4.773m4.324 8.506h-4.815v-1.557h-.068c-1.045 1.35-2.86 2.112-4.637 2.112-5.02 0-7.88-4.53-7.88-9.128 0-4.493 2.894-8.953 7.81-8.953 1.78 0 3.59.76 4.775 2.145v-1.59h4.814v16.973zM116.493 120.52c-1.046-1.037-2.093-1.66-3.59-1.66-2.754 0-4.324 2.56-4.324 5.045 0 2.664 1.71 4.875 4.498 4.875 1.322 0 2.544-.657 3.415-1.623v4.668c-1.324.724-2.72 1.037-4.218 1.037-5.055 0-8.644-4.115-8.644-8.99 0-5.047 3.73-9.09 8.89-9.09 1.36 0 2.79.346 3.973 1.07v4.67zM131.173 120.52c-1.047-1.037-2.092-1.66-3.593-1.66-2.753 0-4.32 2.56-4.32 5.045 0 2.664 1.707 4.875 4.496 4.875 1.325 0 2.543-.657 3.417-1.623v4.668c-1.325.724-2.72 1.037-4.22 1.037-5.055 0-8.646-4.115-8.646-8.99 0-5.047 3.73-9.09 8.892-9.09 1.357 0 2.788.346 3.973 1.07v4.67zM145.957 121.59c-.244-1.728-1.36-3.42-3.24-3.42-1.954 0-3.037 1.658-3.28 3.42h6.52zm-6.66 3.008c0 2.144.838 4.562 3.382 4.562 1.603 0 2.614-.967 3.277-2.314l4.498.726c-1.186 3.388-4.183 5.29-7.776 5.29-5.3 0-8.543-3.733-8.543-8.884 0-5.153 2.754-9.197 8.3-9.197 5.612 0 8.123 4.115 8.123 9.23v.588h-11.262zM160.46 119.346c-.698-.66-1.604-1.177-2.582-1.177-.802 0-1.603.62-1.603 1.45 0 1.244 1.78 1.59 3.52 2.352 1.778.76 3.524 1.933 3.524 4.874 0 3.768-3.07 6.016-6.663 6.016-2.3 0-4.53-1.037-6.032-2.835l2.233-2.87c.94 1.036 2.196 1.972 3.627 1.972 1.08 0 1.95-.73 1.95-1.835 0-1.486-1.708-1.833-3.416-2.56-1.708-.724-3.418-1.727-3.418-4.458 0-3.177 2.232-5.496 5.44-5.496 1.814 0 4.114.556 5.508 1.764l-2.09 2.802zM174.753 119.346c-.697-.66-1.602-1.177-2.58-1.177-.803 0-1.603.62-1.603 1.45 0 1.244 1.778 1.59 3.522 2.352 1.775.76 3.523 1.933 3.523 4.874 0 3.768-3.07 6.016-6.66 6.016-2.304 0-4.535-1.037-6.035-2.835l2.233-2.87c.94 1.036 2.196 1.972 3.627 1.972 1.08 0 1.95-.73 1.95-1.835 0-1.486-1.71-1.833-3.416-2.56-1.708-.724-3.417-1.727-3.417-4.458 0-3.177 2.23-5.496 5.44-5.496 1.814 0 4.113.556 5.51 1.764l-2.094 2.802z" fill="#fee111"/></svg>